# xmcd
#
# Track frame offsets:
#	150
#	13706
#	29624
#	56277
#	74128
#	89559
#	109025
#	127220
#	142596
#	157446
#	176413
#	194647
#	212317
#	223690
#	239571
#
# Disc length: 3462 seconds
#
# Revision: 0
# Processed by: cddbd v1.5.2PL0 Copyright (c) Steve Scherf et al.
# Submitted via: EasyCDDAExtractor 11.0.2.1
#
DISCID=e70d840f
DTITLE=Various Artist - Hits Disco Cd1
DYEAR=2008
DGENRE=Disco
TTITLE0=Kc And The Sunshine Band  - That's The Way (I Like It) 
TTITLE1=Anita Ward  - Ring My Bell 
TTITLE2=The Bb and Q Band  - On The Beat 
TTITLE3=Irene Cara  - Flashdance...What A Feeling 
TTITLE4=Gloria Gaynor  - I Will Survive 
TTITLE5=Mel Brooks  - It's Good To Be The King 
TTITLE6=Hot Chocolate  - You Sexy Thing 
TTITLE7=Tavares  - More Than A Woman 
TTITLE8=Mister Green and F The Voices  - Daddy Cool 
TTITLE9=France Joli  - Come To Me 
TTITLE10=Lime  - Your Love 
TTITLE11=Destination  - Move On Up 
TTITLE12=Ike Turner and Tina Turner  - Funkier Than A Mosquito's Tweeter 
TTITLE13=Phil Fearon and Galaxy  - Dancing Tight 
TTITLE14=Delegation - Darlin' (I Think About You) 
EXTD=
EXTT0=
EXTT1=
EXTT2=
EXTT3=
EXTT4=
EXTT5=
EXTT6=
EXTT7=
EXTT8=
EXTT9=
EXTT10=
EXTT11=
EXTT12=
EXTT13=
EXTT14=
PLAYORDER=
